<svg width="32" height="32" viewBox="0 0 32 32" fill="none" xmlns="http://www.w3.org/2000/svg">
<path d="M4.5 14C4.5 13.4477 4.05228 13 3.5 13C2.94772 13 2.5 13.4477 2.5 14H4.5ZM2.5 18V19H4.5V18H2.5ZM3.5 14H2.5V18H3.5H4.5V14H3.5Z" fill="white"/>
<path d="M9.5 8.66602C9.5 8.11373 9.05228 7.66602 8.5 7.66602C7.94772 7.66602 7.5 8.11373 7.5 8.66602H9.5ZM7.5 23.3327V24.3327H9.5V23.3327H7.5ZM8.5 8.66602H7.5V23.3327H8.5H9.5V8.66602H8.5Z" fill="white"/>
<path d="M14.5 4C14.5 3.44772 14.0523 3 13.5 3C12.9477 3 12.5 3.44772 12.5 4H14.5ZM12.5 28V29H14.5V28H12.5ZM13.5 4H12.5V28H13.5H14.5V4H13.5Z" fill="white"/>
<path d="M19.5 11.334C19.5 10.7817 19.0523 10.334 18.5 10.334C17.9477 10.334 17.5 10.7817 17.5 11.334H19.5ZM17.5 20.6673V21.6673H19.5V20.6673H17.5ZM18.5 11.334H17.5V20.6673H18.5H19.5V11.334H18.5Z" fill="white"/>
<path d="M24.5 7.33398C24.5 6.7817 24.0523 6.33398 23.5 6.33398C22.9477 6.33398 22.5 6.7817 22.5 7.33398H24.5ZM22.5 24.6673V25.6673H24.5V24.6673H22.5ZM23.5 7.33398H22.5V24.6673H23.5H24.5V7.33398H23.5Z" fill="white"/>
<path d="M29.5 14C29.5 13.4477 29.0523 13 28.5 13C27.9477 13 27.5 13.4477 27.5 14H29.5ZM27.5 18V19H29.5V18H27.5ZM28.5 14H27.5V18H28.5H29.5V14H28.5Z" fill="white"/>
</svg>
