<svg width="69" height="32" viewBox="0 0 69 32" fill="none" xmlns="http://www.w3.org/2000/svg">
<path d="M27 14C27 13.4477 26.5523 13 26 13C25.4477 13 25 13.4477 25 14H27ZM25 18V19H27V18H25ZM26 14H25V18H26H27V14H26Z" fill="white"/>
<path d="M32 8.66602C32 8.11373 31.5523 7.66602 31 7.66602C30.4477 7.66602 30 8.11373 30 8.66602H32ZM30 23.3327V24.3327H32V23.3327H30ZM31 8.66602H30V23.3327H31H32V8.66602H31Z" fill="white"/>
<path d="M37 4C37 3.44772 36.5523 3 36 3C35.4477 3 35 3.44772 35 4H37ZM35 28V29H37V28H35ZM36 4H35V28H36H37V4H36Z" fill="white"/>
<path d="M42 11.334C42 10.7817 41.5523 10.334 41 10.334C40.4477 10.334 40 10.7817 40 11.334H42ZM40 20.6673V21.6673H42V20.6673H40ZM41 11.334H40V20.6673H41H42V11.334H41Z" fill="white"/>
<path d="M47 7.33398C47 6.7817 46.5523 6.33398 46 6.33398C45.4477 6.33398 45 6.7817 45 7.33398H47ZM45 24.6673V25.6673H47V24.6673H45ZM46 7.33398H45V24.6673H46H47V7.33398H46Z" fill="white"/>
<path d="M52 14C52 13.4477 51.5523 13 51 13C50.4477 13 50 13.4477 50 14H52ZM50 18V19H52V18H50ZM51 14H50V18H51H52V14H51Z" fill="white"/>
<path d="M5.91667 25.2C4.88333 25.2 3.97778 24.9889 3.2 24.5667C2.43333 24.1333 1.83889 23.5278 1.41667 22.75C0.994444 21.9722 0.783333 21.0556 0.783333 20C0.783333 18.9444 0.994444 18.0278 1.41667 17.25C1.83889 16.4722 2.43333 15.8722 3.2 15.45C3.97778 15.0167 4.88333 14.8 5.91667 14.8C6.98333 14.8 7.89444 15.0111 8.65 15.4333C9.41667 15.8556 10.0056 16.4556 10.4167 17.2333C10.8389 18.0111 11.05 18.9333 11.05 20C11.05 21.0556 10.8389 21.9778 10.4167 22.7667C10.0056 23.5444 9.41667 24.1444 8.65 24.5667C7.88333 24.9889 6.97222 25.2 5.91667 25.2ZM5.91667 23.5667C6.95 23.5667 7.75 23.2556 8.31667 22.6333C8.89444 22 9.18333 21.1222 9.18333 20C9.18333 18.8667 8.89444 17.9889 8.31667 17.3667C7.75 16.7444 6.95 16.4333 5.91667 16.4333C4.89444 16.4333 4.09444 16.75 3.51667 17.3833C2.93889 18.0056 2.65 18.8778 2.65 20C2.65 21.1222 2.93889 22 3.51667 22.6333C4.09444 23.2556 4.89444 23.5667 5.91667 23.5667ZM13.6193 29V16.9333H12.6526V15H14.6526V16.5333H15.3526C15.6859 15.9667 16.1415 15.5389 16.7193 15.25C17.297 14.95 17.9859 14.8 18.7859 14.8C19.797 14.8 20.6526 15.0111 21.3526 15.4333C22.0526 15.8556 22.5859 16.4556 22.9526 17.2333C23.3304 18.0111 23.5193 18.9333 23.5193 20C23.5193 21.0667 23.3359 21.9889 22.9693 22.7667C22.6026 23.5444 22.0748 24.1444 21.3859 24.5667C20.7082 24.9889 19.897 25.2 18.9526 25.2C18.1637 25.2 17.4748 25.0444 16.8859 24.7333C16.297 24.4111 15.8526 23.9611 15.5526 23.3833H15.4859V29H13.6193ZM18.5026 23.6C19.5026 23.6 20.2748 23.2833 20.8193 22.65C21.3748 22.0167 21.6526 21.1333 21.6526 20C21.6526 18.8667 21.3748 17.9833 20.8193 17.35C20.2748 16.7167 19.5026 16.4 18.5026 16.4C17.5915 16.4 16.8582 16.6611 16.3026 17.1833C15.7582 17.7056 15.4859 18.4 15.4859 19.2667V20.7333C15.4859 21.6 15.7582 22.2944 16.3026 22.8167C16.8582 23.3389 17.5915 23.6 18.5026 23.6ZM50.9706 25V16.9333H50.0039V15H52.0039V16.8667H52.7039C52.9817 16.2556 53.4095 15.7778 53.9872 15.4333C54.5761 15.0889 55.265 14.9167 56.0539 14.9167H56.8706V16.5167H55.9539C54.9539 16.5167 54.1817 16.8111 53.6372 17.4C53.0928 17.9889 52.8206 18.7833 52.8206 19.7833V25H50.9706ZM61.2503 25.1833C60.1169 25.1833 59.2225 24.9056 58.5669 24.35C57.9225 23.7833 57.6003 23.0444 57.6003 22.1333C57.6003 21.1778 57.9225 20.4389 58.5669 19.9167C59.2114 19.3833 60.1391 19.1167 61.3503 19.1167H64.7669V18.6667C64.7669 17.1222 63.9169 16.35 62.2169 16.35C60.828 16.35 59.9891 16.8722 59.7003 17.9167H57.8169C57.9836 16.9278 58.4558 16.1611 59.2336 15.6167C60.0225 15.0722 61.028 14.8 62.2503 14.8C63.6391 14.8 64.7003 15.1278 65.4336 15.7833C66.178 16.4389 66.5503 17.3833 66.5503 18.6167V23.0667H67.4503V25H65.4503V23.4667H64.7503C64.4058 24 63.9336 24.4222 63.3336 24.7333C62.7336 25.0333 62.0391 25.1833 61.2503 25.1833ZM61.5003 23.6833C62.1003 23.6833 62.6503 23.5611 63.1503 23.3167C63.6503 23.0722 64.0447 22.7389 64.3336 22.3167C64.6225 21.8944 64.7669 21.4333 64.7669 20.9333V20.4833H61.4669C60.0669 20.4833 59.3669 21.0056 59.3669 22.05C59.3669 22.55 59.5558 22.95 59.9336 23.25C60.3114 23.5389 60.8336 23.6833 61.5003 23.6833Z" fill="white"/>
</svg>
