<svg width="69" height="34" viewBox="0 0 69 34" fill="none" xmlns="http://www.w3.org/2000/svg">
<path d="M27 14C27 13.4477 26.5523 13 26 13C25.4477 13 25 13.4477 25 14H27ZM25 18V19H27V18H25ZM26 14H25V18H26H27V14H26Z" fill="white"/>
<path d="M32 8.66602C32 8.11373 31.5523 7.66602 31 7.66602C30.4477 7.66602 30 8.11373 30 8.66602H32ZM30 23.3327V24.3327H32V23.3327H30ZM31 8.66602H30V23.3327H31H32V8.66602H31Z" fill="white"/>
<path d="M37 4C37 3.44772 36.5523 3 36 3C35.4477 3 35 3.44772 35 4H37ZM35 28V29H37V28H35ZM36 4H35V28H36H37V4H36Z" fill="white"/>
<path d="M42 11.334C42 10.7817 41.5523 10.334 41 10.334C40.4477 10.334 40 10.7817 40 11.334H42ZM40 20.6673V21.6673H42V20.6673H40ZM41 11.334H40V20.6673H41H42V11.334H41Z" fill="white"/>
<path d="M47 7.33398C47 6.7817 46.5523 6.33398 46 6.33398C45.4477 6.33398 45 6.7817 45 7.33398H47ZM45 24.6673V25.6673H47V24.6673H45ZM46 7.33398H45V24.6673H46H47V7.33398H46Z" fill="white"/>
<path d="M52 14C52 13.4477 51.5523 13 51 13C50.4477 13 50 13.4477 50 14H52ZM50 18V19H52V18H50ZM51 14H50V18H51H52V14H51Z" fill="white"/>
<path d="M5.91667 29.2C4.88333 29.2 3.97778 28.9889 3.2 28.5667C2.43333 28.1333 1.83889 27.5278 1.41667 26.75C0.994444 25.9722 0.783333 25.0556 0.783333 24C0.783333 22.9444 0.994444 22.0278 1.41667 21.25C1.83889 20.4722 2.43333 19.8722 3.2 19.45C3.97778 19.0167 4.88333 18.8 5.91667 18.8C6.98333 18.8 7.89444 19.0111 8.65 19.4333C9.41667 19.8556 10.0056 20.4556 10.4167 21.2333C10.8389 22.0111 11.05 22.9333 11.05 24C11.05 25.0556 10.8389 25.9778 10.4167 26.7667C10.0056 27.5444 9.41667 28.1444 8.65 28.5667C7.88333 28.9889 6.97222 29.2 5.91667 29.2ZM5.91667 27.5667C6.95 27.5667 7.75 27.2556 8.31667 26.6333C8.89444 26 9.18333 25.1222 9.18333 24C9.18333 22.8667 8.89444 21.9889 8.31667 21.3667C7.75 20.7444 6.95 20.4333 5.91667 20.4333C4.89444 20.4333 4.09444 20.75 3.51667 21.3833C2.93889 22.0056 2.65 22.8778 2.65 24C2.65 25.1222 2.93889 26 3.51667 26.6333C4.09444 27.2556 4.89444 27.5667 5.91667 27.5667ZM13.6193 33V20.9333H12.6526V19H14.6526V20.5333H15.3526C15.6859 19.9667 16.1415 19.5389 16.7193 19.25C17.297 18.95 17.9859 18.8 18.7859 18.8C19.797 18.8 20.6526 19.0111 21.3526 19.4333C22.0526 19.8556 22.5859 20.4556 22.9526 21.2333C23.3304 22.0111 23.5193 22.9333 23.5193 24C23.5193 25.0667 23.3359 25.9889 22.9693 26.7667C22.6026 27.5444 22.0748 28.1444 21.3859 28.5667C20.7082 28.9889 19.897 29.2 18.9526 29.2C18.1637 29.2 17.4748 29.0444 16.8859 28.7333C16.297 28.4111 15.8526 27.9611 15.5526 27.3833H15.4859V33H13.6193ZM18.5026 27.6C19.5026 27.6 20.2748 27.2833 20.8193 26.65C21.3748 26.0167 21.6526 25.1333 21.6526 24C21.6526 22.8667 21.3748 21.9833 20.8193 21.35C20.2748 20.7167 19.5026 20.4 18.5026 20.4C17.5915 20.4 16.8582 20.6611 16.3026 21.1833C15.7582 21.7056 15.4859 22.4 15.4859 23.2667V24.7333C15.4859 25.6 15.7582 26.2944 16.3026 26.8167C16.8582 27.3389 17.5915 27.6 18.5026 27.6ZM50.9706 29V20.9333H50.0039V19H52.0039V20.8667H52.7039C52.9817 20.2556 53.4095 19.7778 53.9872 19.4333C54.5761 19.0889 55.265 18.9167 56.0539 18.9167H56.8706V20.5167H55.9539C54.9539 20.5167 54.1817 20.8111 53.6372 21.4C53.0928 21.9889 52.8206 22.7833 52.8206 23.7833V29H50.9706ZM61.2503 29.1833C60.1169 29.1833 59.2225 28.9056 58.5669 28.35C57.9225 27.7833 57.6003 27.0444 57.6003 26.1333C57.6003 25.1778 57.9225 24.4389 58.5669 23.9167C59.2114 23.3833 60.1391 23.1167 61.3503 23.1167H64.7669V22.6667C64.7669 21.1222 63.9169 20.35 62.2169 20.35C60.828 20.35 59.9891 20.8722 59.7003 21.9167H57.8169C57.9836 20.9278 58.4558 20.1611 59.2336 19.6167C60.0225 19.0722 61.028 18.8 62.2503 18.8C63.6391 18.8 64.7003 19.1278 65.4336 19.7833C66.178 20.4389 66.5503 21.3833 66.5503 22.6167V27.0667H67.4503V29H65.4503V27.4667H64.7503C64.4058 28 63.9336 28.4222 63.3336 28.7333C62.7336 29.0333 62.0391 29.1833 61.2503 29.1833ZM61.5003 27.6833C62.1003 27.6833 62.6503 27.5611 63.1503 27.3167C63.6503 27.0722 64.0447 26.7389 64.3336 26.3167C64.6225 25.8944 64.7669 25.4333 64.7669 24.9333V24.4833H61.4669C60.0669 24.4833 59.3669 25.0056 59.3669 26.05C59.3669 26.55 59.5558 26.95 59.9336 27.25C60.3114 27.5389 60.8336 27.6833 61.5003 27.6833Z" fill="white"/>
</svg>
